<svg viewBox="0 0 37 37" fill="none" xmlns="http://www.w3.org/2000/svg">
<path d="M29.4095 18.8356C28.7735 15.6404 27.2788 12.8926 25.1162 10.4962C24.0986 9.40985 23.5795 9.21482 22.1802 8.67164C21.2898 8.32018 20.0279 8.64348 19.4554 9.37836C17.7699 11.6469 16.0844 12.9884 14.3989 15.2889C13.4766 16.535 12.5226 17.7173 11.6003 18.9634C11.3777 19.2829 11.0915 19.5065 10.7417 19.6663C9.62857 20.1775 8.5473 20.6888 7.46603 21.168C7.0844 21.3597 6.89359 21.6153 6.86179 22.0627C6.82998 22.478 6.86181 22.8783 6.8618 23.5119C6.86178 24.4875 7.10036 25.0078 7.46603 25.6319C7.81112 26.2207 8.5473 26.6317 8.70631 26.6956C9.22447 26.9039 9.43052 26.9176 9.81337 27.0452C10.0761 27.1328 11.0257 27.1457 11.4623 26.9274C12.169 26.5741 12.5544 26.3442 13.5402 25.801C13.7629 25.6732 13.8583 25.7371 13.9537 25.9608C14.2717 26.6317 14.6215 27.3027 14.9713 27.9737C15.194 28.3891 15.353 28.4849 15.83 28.453C16.6569 28.3571 17.5155 28.2613 18.3424 28.1335C18.9784 28.0376 19.6145 27.9737 20.2505 27.8779C20.7275 27.814 21.0774 27.4625 21.0774 27.0471C21.0774 26.3122 21.2046 25.5773 21.2046 24.8105C21.2046 24.5549 21.3 24.459 21.5544 24.4271C23.8124 24.1395 24.2801 23.9159 26.5381 23.5963C26.8243 23.5644 28.1422 23.1586 28.7759 22.5697C29.4095 21.9808 29.5685 21.4556 29.6003 20.6249C29.5685 19.9539 29.5049 19.3787 29.4095 18.8356ZM19.4873 26.6317C18.4378 26.7596 17.3883 26.8874 16.3388 27.0152C16.1162 27.0471 16.0208 26.9832 15.989 26.7596C15.8936 26.3122 15.7664 25.8649 15.6074 25.4176C15.5438 25.2259 15.6074 25.162 15.7982 25.162C17.0067 25.0022 18.247 24.8425 19.4554 24.6507C19.7099 24.6188 19.7417 24.7147 19.7735 24.9064C19.8053 25.3217 19.8371 25.7691 19.8689 26.2164C19.9007 26.5039 19.7735 26.5998 19.4873 26.6317Z" fill="#1D91E9"/>
<path d="M16.324 26.409L16.0475 25.0266C15.9902 24.7403 15.689 24.5745 15.4164 24.6793L14.9073 24.8751C14.642 24.9772 14.5268 25.2892 14.6622 25.5392L15.8043 27.6476C15.8866 27.7996 16.0456 27.8943 16.2185 27.8943H18.3181C18.3796 27.8943 18.4406 27.8823 18.4975 27.8589L20.1085 27.1955C20.2916 27.1201 20.4081 26.9382 20.3998 26.7403L20.3145 24.6917C20.304 24.441 20.0977 24.2432 19.8468 24.2432C19.5787 24.2432 19.3654 24.468 19.3795 24.7358L19.448 26.039C19.4611 26.2874 19.2787 26.5032 19.0316 26.5317L16.8399 26.7846C16.5964 26.8127 16.372 26.6494 16.324 26.409Z" fill="#1D91E9"/>
<path fill-rule="evenodd" clip-rule="evenodd" d="M19.9732 11.1411C20.1677 11.1568 20.3126 11.3272 20.2969 11.5217C20.2666 11.8977 20.3291 12.596 20.5223 13.4875C20.7136 14.3707 21.0275 15.4183 21.4829 16.4857C22.3977 18.6301 23.861 20.8038 25.9958 21.9274C26.1684 22.0182 26.2348 22.2319 26.1439 22.4046C26.053 22.5773 25.8393 22.6436 25.6666 22.5527C23.3257 21.3206 21.7768 18.9757 20.8329 16.7629C20.3588 15.6518 20.0318 14.5612 19.8316 13.6371C19.6333 12.7215 19.5539 11.9436 19.5926 11.4649C19.6082 11.2703 19.7787 11.1254 19.9732 11.1411Z" fill="#0042C1"/>
<path fill-rule="evenodd" clip-rule="evenodd" d="M11.398 20.4536C11.5908 20.4833 11.7231 20.6637 11.6935 20.8566C11.5911 21.522 11.7954 22.299 12.1314 22.9709C12.2972 23.3026 12.4892 23.5964 12.677 23.8244C12.8703 24.0591 13.039 24.1995 13.1512 24.2556C13.3257 24.3429 13.3965 24.5551 13.3092 24.7297C13.2219 24.9042 13.0097 24.975 12.8351 24.8877C12.594 24.7671 12.3505 24.5395 12.1315 24.2737C11.907 24.0011 11.6868 23.6619 11.4993 23.2869C11.1286 22.5455 10.8618 21.6148 10.995 20.7491C11.0247 20.5562 11.2051 20.4239 11.398 20.4536Z" fill="#0042C1"/>
<path fill-rule="evenodd" clip-rule="evenodd" d="M24.6352 14.8645C24.5723 15.2124 24.6183 15.6602 24.8089 16.116C24.9995 16.5718 25.2861 16.9189 25.5779 17.1184C25.8731 17.3202 26.1305 17.3473 26.3133 17.2709C26.4961 17.1944 26.6575 16.9921 26.7211 16.6403C26.784 16.2924 26.7381 15.8446 26.5474 15.3888C26.3568 14.933 26.0702 14.5859 25.7784 14.3864C25.4832 14.1846 25.2258 14.1575 25.043 14.2339C24.8603 14.3104 24.6988 14.5127 24.6352 14.8645ZM23.9398 14.7388C24.0296 14.2422 24.293 13.7816 24.7704 13.582C25.2477 13.3823 25.7606 13.5182 26.1772 13.803C26.5973 14.0901 26.9639 14.5533 27.1994 15.1161C27.4348 15.679 27.507 16.2653 27.4165 16.766C27.3268 17.2626 27.0633 17.7232 26.586 17.9228C26.1086 18.1225 25.5957 17.9866 25.1791 17.7018C24.7591 17.4147 24.3924 16.9515 24.1569 16.3887C23.9215 15.8258 23.8493 15.2395 23.9398 14.7388Z" fill="#0042C1"/>
<path fill-rule="evenodd" clip-rule="evenodd" d="M25.4222 20.2669C25.6164 20.2472 25.7577 20.0738 25.738 19.8796L25.3865 19.9154C25.738 19.8796 25.738 19.8796 25.738 19.8796L25.738 19.8799L25.7377 19.8764C25.7374 19.8726 25.7369 19.8663 25.7362 19.8576C25.735 19.8402 25.7334 19.8136 25.7323 19.7796C25.7299 19.7112 25.7295 19.6146 25.7369 19.504C25.7522 19.2746 25.7993 19.0208 25.9049 18.8294C26.019 18.6226 26.2493 18.3718 26.4757 18.157C26.5847 18.0536 26.6855 17.9652 26.7591 17.9027C26.7958 17.8715 26.8254 17.847 26.8456 17.8305C26.8557 17.8222 26.8634 17.816 26.8685 17.812L26.874 17.8076L26.8751 17.8067C27.0281 17.6856 27.0542 17.4634 26.9332 17.3103C26.8122 17.1572 26.5899 17.1313 26.4369 17.2523L26.656 17.5295C26.4369 17.2523 26.4369 17.2523 26.4369 17.2523L26.4358 17.2531L26.4336 17.2549L26.426 17.261C26.4195 17.2662 26.4103 17.2736 26.3986 17.2832C26.3753 17.3022 26.3421 17.3297 26.3016 17.3641C26.2207 17.4328 26.1098 17.53 25.9892 17.6444C25.7564 17.8653 25.4565 18.1792 25.2861 18.488C25.1072 18.8123 25.0498 19.1868 25.0318 19.4568C25.0225 19.5959 25.0231 19.7168 25.026 19.8035C25.0275 19.847 25.0295 19.8823 25.0313 19.9075C25.0322 19.9201 25.033 19.9302 25.0337 19.9376L25.0345 19.9465L25.0348 19.9494L25.0349 19.9504L25.0349 19.9508C25.0349 19.9509 25.0349 19.9512 25.3865 19.9154L25.0349 19.9512C25.0547 20.1453 25.2281 20.2867 25.4222 20.2669Z" fill="#0042C1"/>
<path fill-rule="evenodd" clip-rule="evenodd" d="M21.7344 13.1152C21.882 12.9791 22.1119 12.9884 22.248 13.136L21.9808 13.3824C22.248 13.136 22.2481 13.136 22.248 13.136L22.2478 13.1358L22.2504 13.1384C22.253 13.1413 22.2575 13.146 22.2638 13.1524C22.2763 13.1651 22.2958 13.1845 22.3212 13.2086C22.3723 13.257 22.4464 13.3232 22.5366 13.3929C22.7238 13.5375 22.9515 13.6743 23.1709 13.7234C23.4079 13.7765 23.7582 13.77 24.0779 13.7421C24.2319 13.7286 24.3688 13.7112 24.4671 13.6971C24.5161 13.6901 24.5552 13.684 24.5817 13.6797C24.5949 13.6775 24.605 13.6758 24.6115 13.6747L24.6187 13.6735L24.6202 13.6732C24.8177 13.6378 25.0067 13.7693 25.0421 13.9668C25.0775 14.1644 24.9461 14.3533 24.7485 14.3887L24.6844 14.031C24.7485 14.3887 24.7485 14.3887 24.7485 14.3887L24.7471 14.389L24.7443 14.3895L24.7344 14.3912C24.726 14.3926 24.7139 14.3947 24.6986 14.3972C24.668 14.4022 24.6242 14.409 24.5701 14.4168C24.4621 14.4322 24.3116 14.4514 24.1412 14.4663C23.8123 14.495 23.3661 14.5121 23.012 14.4328C22.6403 14.3495 22.3126 14.1385 22.0923 13.9683C21.9788 13.8806 21.886 13.7977 21.8213 13.7364C21.7887 13.7056 21.763 13.6799 21.7448 13.6614C21.7357 13.6521 21.7285 13.6446 21.7232 13.6391L21.7169 13.6323L21.7149 13.6302L21.7141 13.6294L21.7138 13.6291C21.7138 13.629 21.7136 13.6288 21.9808 13.3824L21.7136 13.6288C21.5775 13.4812 21.5868 13.2513 21.7344 13.1152Z" fill="#0042C1"/>
</svg>
