<svg width="37" height="37" viewBox="0 0 37 37" fill="none" xmlns="http://www.w3.org/2000/svg">
<path d="M29.3568 17.4953C28.3361 14.4015 26.5176 11.8563 24.0791 9.74137C22.9367 8.78714 22.3977 8.65681 20.9427 8.28822C20.016 8.04789 18.8029 8.52256 18.3243 9.32174C16.9278 11.7788 15.4184 13.3157 14.0258 15.8045C13.2623 17.1537 12.4594 18.4434 11.6959 19.7926C11.5138 20.1369 11.257 20.3937 10.9293 20.5949C9.88678 21.238 8.87587 21.8772 7.86107 22.4847C7.50565 22.7215 7.34741 22.9984 7.37036 23.4463C7.38941 23.8624 7.46978 24.2558 7.54699 24.8847C7.66587 25.8531 7.96608 26.3404 8.40507 26.9152C8.81935 27.4577 9.60014 27.7759 9.76575 27.8199C10.3054 27.9635 10.5116 27.952 10.9072 28.032C11.1786 28.0869 12.1227 27.984 12.5294 27.7141C13.1878 27.2773 13.5423 27.0021 14.4546 26.3428C14.66 26.1889 14.7625 26.2407 14.8844 26.451C15.2819 27.0783 15.7109 27.7016 16.1398 28.325C16.4114 28.7101 16.5809 28.7859 17.0505 28.696C17.8595 28.5001 18.7001 28.3003 19.5052 28.0727C20.1248 27.9 20.7483 27.7591 21.368 27.5864C21.8337 27.4649 22.138 27.0734 22.0874 26.6611C21.9979 25.9317 22.0346 25.1868 21.9411 24.4257C21.91 24.172 21.993 24.0652 22.2416 24.0025C24.4477 23.4419 24.8847 23.1629 27.0869 22.5706C27.3671 22.504 28.6258 21.9406 29.1829 21.2789C29.7401 20.6171 29.8339 20.0765 29.7642 19.248C29.6509 18.5859 29.5176 18.0228 29.3568 17.4953ZM20.4585 26.4426C19.4325 26.6974 18.4064 26.9521 17.3803 27.2069C17.1633 27.2657 17.0608 27.2139 17.002 26.9958C16.8527 26.5635 16.672 26.135 16.4596 25.7104C16.3731 25.5278 16.4285 25.4567 16.6179 25.4334C17.7979 25.1276 19.0094 24.8178 20.1856 24.4803C20.4342 24.4176 20.4774 24.5088 20.5324 24.6952C20.6145 25.1036 20.7006 25.5437 20.7867 25.9839C20.8533 26.2654 20.7387 26.376 20.4585 26.4426Z" fill="#0073CA"/>
<path d="M17.2917 26.6071L16.8488 25.2687C16.7571 24.9915 16.4378 24.8636 16.1801 25.0009L15.6987 25.2572C15.4478 25.3909 15.3715 25.7147 15.5363 25.9463L16.9268 27.8998C17.0271 28.0406 17.1964 28.1153 17.3681 28.0942L19.452 27.8383C19.5131 27.8308 19.5721 27.8114 19.6257 27.7812L21.1439 26.9265C21.3165 26.8293 21.4098 26.6346 21.3775 26.4391L21.0432 24.4163C21.0022 24.1687 20.7734 23.9975 20.5244 24.0281C20.2582 24.0607 20.0739 24.3099 20.1205 24.574L20.3474 25.859C20.3906 26.1041 20.2359 26.3405 19.9941 26.3989L17.8496 26.917C17.6113 26.9746 17.3687 26.8398 17.2917 26.6071Z" fill="#0073CA"/>
<path fill-rule="evenodd" clip-rule="evenodd" d="M19.0532 11.0078C19.2482 10.9997 19.4128 11.1512 19.4209 11.3462C19.4366 11.723 19.5838 12.4085 19.8841 13.2699C20.1816 14.1231 20.6209 15.1247 21.203 16.1286C22.3723 18.1455 24.0896 20.1247 26.3454 20.9798C26.5279 21.0489 26.6197 21.2529 26.5506 21.4354C26.4814 21.6179 26.2774 21.7097 26.0949 21.6406C23.6213 20.703 21.7982 18.5642 20.5916 16.483C19.9857 15.4379 19.5281 14.3953 19.2169 13.5025C18.9084 12.6179 18.7349 11.8554 18.7149 11.3756C18.7067 11.1806 18.8582 11.016 19.0532 11.0078Z" fill="#679BFF"/>
<path fill-rule="evenodd" clip-rule="evenodd" d="M11.6767 21.2961C11.8717 21.302 12.025 21.465 12.0191 21.66C11.9985 22.333 12.2961 23.0793 12.7114 23.7052C12.9164 24.0142 13.1428 24.2825 13.357 24.4859C13.5774 24.6953 13.7619 24.8141 13.8801 24.8561C14.064 24.9215 14.1601 25.1235 14.0948 25.3074C14.0294 25.4912 13.8274 25.5873 13.6435 25.522C13.3895 25.4317 13.12 25.2355 12.8703 24.9983C12.6143 24.7551 12.3543 24.4452 12.1226 24.0959C11.6642 23.4052 11.286 22.5139 11.3127 21.6385C11.3187 21.4434 11.4816 21.2901 11.6767 21.2961Z" fill="#679BFF"/>
<path fill-rule="evenodd" clip-rule="evenodd" d="M24.1342 14.1356C24.1142 14.4885 24.2143 14.9274 24.4591 15.3566C24.7038 15.7857 25.0306 16.0954 25.3445 16.2578C25.6621 16.4221 25.9209 16.4177 26.093 16.3195C26.2651 16.2213 26.4007 16.0009 26.421 15.6439C26.441 15.291 26.3408 14.8521 26.096 14.423C25.8513 13.9938 25.5245 13.6841 25.2106 13.5217C24.893 13.3574 24.6342 13.3619 24.4621 13.46C24.29 13.5582 24.1544 13.7786 24.1342 14.1356ZM23.4286 14.0956C23.4572 13.5918 23.6626 13.1025 24.112 12.8462C24.5615 12.5898 25.0871 12.6622 25.5353 12.8941C25.9872 13.1279 26.4076 13.5429 26.7099 14.0729C27.0122 14.6028 27.1553 15.1759 27.1265 15.6839C27.0979 16.1878 26.8925 16.677 26.4431 16.9334C25.9937 17.1897 25.468 17.1174 25.0198 16.8855C24.5679 16.6516 24.1475 16.2367 23.8452 15.7067C23.543 15.1767 23.3998 14.6036 23.4286 14.0956Z" fill="#679BFF"/>
<path fill-rule="evenodd" clip-rule="evenodd" d="M25.5736 19.4018C25.7639 19.3585 25.8831 19.1692 25.8398 18.9789L25.4953 19.0572C25.8398 18.9789 25.8398 18.9788 25.8398 18.9789L25.8399 18.9791L25.8392 18.9756C25.8384 18.972 25.8371 18.9657 25.8354 18.9572C25.8321 18.9401 25.8273 18.9139 25.822 18.8803C25.8113 18.8127 25.7991 18.7169 25.7929 18.6062C25.7802 18.3766 25.796 18.1189 25.8775 17.9161C25.9655 17.697 26.1636 17.42 26.3621 17.1792C26.4577 17.0632 26.547 16.9632 26.6124 16.8922C26.645 16.8568 26.6715 16.8289 26.6895 16.81C26.6985 16.8006 26.7054 16.7935 26.7099 16.7889L26.7148 16.7838L26.7159 16.7828C26.853 16.644 26.8518 16.4202 26.713 16.283C26.5742 16.1459 26.3505 16.1471 26.2133 16.2859L26.4646 16.5343C26.2133 16.2859 26.2134 16.2859 26.2133 16.2859L26.2124 16.2869L26.2104 16.2889L26.2036 16.2959C26.1978 16.3018 26.1895 16.3104 26.1791 16.3212C26.1583 16.343 26.1287 16.3743 26.0926 16.4134C26.0208 16.4914 25.9225 16.6014 25.8168 16.7297C25.6126 16.9773 25.3532 17.3254 25.2217 17.6527C25.0837 17.9963 25.0724 18.3751 25.0874 18.6453C25.0951 18.7845 25.1104 18.9044 25.1239 18.9901C25.1306 19.0331 25.137 19.0679 25.1418 19.0927C25.1443 19.1051 25.1463 19.115 25.1478 19.1222L25.1497 19.131L25.1504 19.1338L25.1506 19.1348L25.1507 19.1352C25.1507 19.1353 25.1508 19.1356 25.4953 19.0572L25.1508 19.1356C25.194 19.3259 25.3834 19.445 25.5736 19.4018Z" fill="#679BFF"/>
<path fill-rule="evenodd" clip-rule="evenodd" d="M21.0416 12.7527C21.1715 12.5996 21.4009 12.5808 21.554 12.7107L21.3188 12.9878C21.554 12.7107 21.554 12.7108 21.554 12.7107L21.5537 12.7105L21.5566 12.7129C21.5596 12.7153 21.5646 12.7195 21.5716 12.725C21.5856 12.7362 21.6072 12.7531 21.6354 12.7739C21.692 12.8157 21.7736 12.8724 21.8717 12.9306C22.0751 13.0513 22.3178 13.1593 22.5415 13.1813C22.7833 13.2051 23.1301 13.156 23.4441 13.0893C23.5953 13.0572 23.7291 13.0232 23.8249 12.9972C23.8727 12.9843 23.9108 12.9735 23.9365 12.9659C23.9494 12.9622 23.9592 12.9593 23.9655 12.9574L23.9724 12.9553L23.9739 12.9548C24.1657 12.8956 24.3693 13.0031 24.4285 13.1949C24.4877 13.3867 24.3803 13.5902 24.1884 13.6494L24.0812 13.3021C24.1884 13.6494 24.1885 13.6494 24.1884 13.6494L24.1871 13.6498L24.1844 13.6507L24.1748 13.6536C24.1666 13.656 24.1549 13.6595 24.14 13.6638C24.1102 13.6725 24.0676 13.6847 24.0148 13.699C23.9095 13.7275 23.7624 13.7648 23.5952 13.8004C23.2722 13.869 22.8314 13.9403 22.4703 13.9048C22.0912 13.8674 21.7402 13.6978 21.5008 13.5558C21.3775 13.4826 21.2753 13.4116 21.2035 13.3586C21.1675 13.332 21.1388 13.3097 21.1185 13.2935C21.1083 13.2854 21.1002 13.2788 21.0944 13.274L21.0873 13.2681L21.085 13.2662L21.0842 13.2655L21.0839 13.2652C21.0838 13.2652 21.0836 13.265 21.3188 12.9878L21.0836 13.265C20.9305 13.1351 20.9117 12.9057 21.0416 12.7527Z" fill="#679BFF"/>
</svg>
