<svg width="20" height="23" viewBox="0 0 20 23" fill="none" xmlns="http://www.w3.org/2000/svg">
<path d="M19.2806 17.924C18.9328 18.7275 18.5211 19.4672 18.0441 20.1472C17.3939 21.0743 16.8615 21.716 16.4512 22.0724C15.8151 22.6573 15.1337 22.9568 14.4039 22.9739C13.8801 22.9739 13.2483 22.8248 12.5129 22.5224C11.7751 22.2214 11.097 22.0724 10.477 22.0724C9.8268 22.0724 9.12944 22.2214 8.38352 22.5224C7.63647 22.8248 7.03466 22.9824 6.57453 22.998C5.87475 23.0278 5.17725 22.7197 4.48102 22.0724C4.03665 21.6848 3.48084 21.0204 2.81499 20.0791C2.1006 19.0739 1.51326 17.9084 1.05313 16.5795C0.560353 15.1442 0.313324 13.7543 0.313324 12.4087C0.313324 10.8673 0.646388 9.53789 1.31351 8.42385C1.83781 7.529 2.53531 6.82312 3.40829 6.30493C4.28127 5.78674 5.22453 5.52267 6.24033 5.50578C6.79614 5.50578 7.52502 5.6777 8.4308 6.01559C9.33402 6.35462 9.91397 6.52655 10.1682 6.52655C10.3583 6.52655 11.0026 6.32552 12.0948 5.92473C13.1276 5.55305 13.9993 5.39916 14.7134 5.45978C16.6485 5.61595 18.1023 6.37876 19.0691 7.75303C17.3385 8.80163 16.4824 10.2703 16.4994 12.1544C16.5151 13.622 17.0474 14.8432 18.0938 15.8129C18.568 16.2629 19.0975 16.6107 19.6867 16.8578C19.5589 17.2283 19.424 17.5832 19.2806 17.924ZM14.8426 0.460131C14.8426 1.61039 14.4224 2.68439 13.5848 3.67847C12.5739 4.86023 11.3513 5.54311 10.0254 5.43536C10.0085 5.29736 9.99873 5.15213 9.99873 4.99951C9.99873 3.89526 10.4794 2.71349 11.3331 1.74724C11.7593 1.25801 12.3014 0.851218 12.9587 0.526714C13.6146 0.207053 14.235 0.0302728 14.8185 0C14.8355 0.153772 14.8426 0.307554 14.8426 0.460116V0.460131Z" fill="black"/>
</svg>
