<svg viewBox="0 0 37 37" fill="none" xmlns="http://www.w3.org/2000/svg">
<path d="M3.674 16.6714C3.40477 14.4787 4.96404 12.4829 7.15671 12.2137L15.2679 11.2178C16.6962 11.0424 18.1085 11.6477 18.9665 12.8028L28.5679 25.729C30.3967 28.1911 28.8884 31.7106 25.8443 32.0844L9.83783 34.0497C7.64516 34.3189 5.6494 32.7597 5.38017 30.567L3.674 16.6714Z" fill="#FFF8D9"/>
<path fill-rule="evenodd" clip-rule="evenodd" d="M19.074 4.23599C17.8731 4.08747 16.7581 5.03777 16.596 6.34779L14.8741 20.2697C14.8446 20.5079 14.8916 20.7555 15.0099 20.9636L18.6965 27.2719C19.0624 27.8975 19.8703 27.9974 20.3777 27.4798L25.4901 22.2599C25.6556 22.0869 25.76 21.8701 25.7909 21.62L27.5128 7.69805C27.6749 6.38803 26.8249 5.19467 25.6241 5.04615L19.074 4.23599Z" fill="#DDB306"/>
<g clip-path="url(#clip0_2194_3819)">
<path d="M16.0641 10.648C19.0106 10.583 23.0924 10.843 27.7109 12.2232" stroke="#C38901" stroke-miterlimit="10"/>
<mask id="mask0_2194_3819" style="mask-type:alpha" maskUnits="userSpaceOnUse" x="14" y="4" width="14" height="24">
<path fill-rule="evenodd" clip-rule="evenodd" d="M19.074 4.23599C17.8731 4.08747 16.7581 5.03778 16.596 6.34779L14.8741 20.2697C14.8446 20.5079 14.8916 20.7555 15.0099 20.9636L18.6965 27.2719C19.0624 27.8975 19.8703 27.9974 20.3777 27.4798L25.4901 22.2599C25.6556 22.0869 25.76 21.8701 25.7909 21.62L27.5128 7.69805C27.6749 6.38803 26.8249 5.19467 25.6241 5.04615L19.074 4.23599Z" fill="#F7C702"/>
</mask>
<g mask="url(#mask0_2194_3819)">
<path d="M14.8861 20.1755C17.8326 20.1105 21.9144 20.3705 26.5329 21.7506" stroke="#C38901" stroke-miterlimit="10"/>
<path d="M16.359 8.2662C19.3055 8.20121 23.3873 8.4612 28.0058 9.84132" stroke="#C38901" stroke-miterlimit="10"/>
<path d="M15.378 25.158L24.1114 26.2382L23.6695 29.8109L14.9361 28.7307L15.378 25.158Z" fill="#C38901"/>
</g>
</g>
<defs>
<clipPath id="clip0_2194_3819">
<rect width="11" height="23.328" fill="white" transform="translate(16.8906 3.96594) rotate(7.05086)"/>
</clipPath>
</defs>
</svg>
