<svg viewBox="0 0 37 37" fill="none" xmlns="http://www.w3.org/2000/svg">
<path d="M4 15C4 12.7909 5.79086 11 8 11H16.1722C17.6111 11 18.9391 11.7729 19.65 13.024L27.6045 27.024C29.1196 29.6905 27.1936 33 24.1267 33H8C5.79086 33 4 31.2091 4 29V15Z" fill="#FFF6D1"/>
<path fill-rule="evenodd" clip-rule="evenodd" d="M20.8007 4.53412C19.6269 4.24036 18.4043 5.04769 18.0838 6.32819L14.6781 19.9365C14.6198 20.1693 14.6362 20.4208 14.7283 20.6418L17.6186 27.3523C17.9056 28.0179 18.6953 28.2155 19.2619 27.7635L24.9724 23.2056C25.1577 23.054 25.2878 22.8516 25.349 22.6071L28.7547 8.99881C29.0752 7.7183 28.377 6.43026 27.2032 6.13649L20.8007 4.53412Z" fill="#F7C702"/>
<g clip-path="url(#clip0_1327_1541)">
<path d="M17.0318 10.5316C19.9643 10.8262 23.984 11.5817 28.3999 13.5143" stroke="#D48D03" stroke-miterlimit="10"/>
<mask id="mask0_1327_1541" style="mask-type:alpha" maskUnits="userSpaceOnUse" x="14" y="4" width="15" height="25">
<path fill-rule="evenodd" clip-rule="evenodd" d="M20.8007 4.53412C19.6269 4.24036 18.4043 5.04769 18.0838 6.32819L14.6781 19.9365C14.6198 20.1693 14.6362 20.4208 14.7283 20.6418L17.6186 27.3523C17.9056 28.0179 18.6953 28.2155 19.2619 27.7636L24.9724 23.2056C25.1577 23.054 25.2878 22.8516 25.349 22.6071L28.7547 8.99881C29.0752 7.7183 28.377 6.43026 27.2032 6.13649L20.8007 4.53412Z" fill="#F7C702"/>
</mask>
<g mask="url(#mask0_1327_1541)">
<path d="M14.7015 19.8446C17.634 20.1392 21.6536 20.8946 26.0696 22.8273" stroke="#D48D03" stroke-miterlimit="10"/>
<path d="M17.6148 8.20345C20.5473 8.49804 24.567 9.25353 28.9829 11.1862" stroke="#D48D03" stroke-miterlimit="10"/>
<path d="M14.5824 24.8496L23.1191 26.9861L22.2451 30.4784L13.7084 28.3419L14.5824 24.8496Z" fill="#D48D03"/>
</g>
</g>
<defs>
<clipPath id="clip0_1327_1541">
<rect width="11" height="23.328" fill="white" transform="translate(18.6665 4) rotate(14.0509)"/>
</clipPath>
</defs>
</svg>
