<svg xmlns="http://www.w3.org/2000/svg" fill="currentColor" viewBox="0 0 24 24">
  <path d="M21.235 7.053a1.219 1.219 0 0 0-1.24-1.21h-4.75v-1a1.59 1.59 0 0 0-1.59-1.63h-3.32a1.59 1.59 0 0 0-1.59 1.58v1h-4.75a1.22 1.22 0 0 0-1.24 1.26v4.58a.66.66 0 0 0 .36.58l.48.25v6a1.21 1.21 0 0 0 1.21 1.21h14.38a1.21 1.21 0 0 0 1.21-1.21v-6.13l.51-.25a.65.65 0 0 0 .34-.57l-.01-4.46Zm-11.24-1.21v-1a.31.31 0 0 1 .34-.38h3.32a.32.32 0 0 1 .31.31v1l-3.97.07Zm1.25 8.05v-.78h1.44v.78h-1.44Zm-6.41-1c1.658.56 3.384.897 5.13 1v.3a1 1 0 0 0 1 1h2.03a1 1 0 0 0 1-1v-.31a18.82 18.82 0 0 0 5.14-1v5.58H4.866l-.03-5.57Zm8.16-1.06h-2a1 1 0 0 0-.94.8 17.399 17.399 0 0 1-6-1.4v-4.12h15.94v4a16.331 16.331 0 0 1-6 1.5 1 1 0 0 0-1-.78Z"/>
</svg>
