<svg xmlns="http://www.w3.org/2000/svg" fill="currentColor" viewBox="0 0 24 24">
  <path fill-rule="evenodd" d="M11.531 4.267h6.75a1.126 1.126 0 0 1 1.125 1.125v14.625H3.656v-7.875a1.126 1.126 0 0 1 1.125-1.125h5.625V5.392a1.126 1.126 0 0 1 1.125-1.125ZM7.594 14.954v3.938h2.25v-3.938h-2.25Zm3.375 3.938h7.312v-13.5h-6.75v6.75h-6.75v6.75H6.47v-4.5a.563.563 0 0 1 .562-.563h3.375a.563.563 0 0 1 .563.563v4.5Zm2.812-11.25h-1.125v1.125h1.125V7.642Zm3.375 0h-1.125v1.125h1.125V7.642Zm-3.375 3.375h-1.125v1.125h1.125v-1.125Zm3.375 0h-1.125v1.125h1.125v-1.125Zm-3.375 3.375h-1.125v1.125h1.125v-1.125Zm3.375 0h-1.125v1.125h1.125v-1.125Z" clip-rule="evenodd"/>
  <path d="M18.281 4.267v-.1.1Zm-6.75 0v-.1.1Zm7.545.33.071-.071-.07.07Zm.33.795h.1-.1Zm0 14.625v.1h.1v-.1h-.1Zm-15.75 0h-.1v.1h.1v-.1Zm0-7.875h-.1.1Zm.33-.795.07.07-.07-.07Zm.795-.33v-.1.1Zm5.625 0v.1h.1v-.1h-.1Zm0-5.625h-.1.1Zm.33-.795.07.07-.07-.07ZM7.594 18.892h-.1v.1h.1v-.1Zm0-3.938v-.1h-.1v.1h.1Zm2.25 3.938v.1h.1v-.1h-.1Zm0-3.938h.1v-.1h-.1v.1Zm8.437 3.938v.1h.1v-.1h-.1Zm-7.312 0h-.1v.1h.1v-.1Zm7.312-13.5h.1v-.1h-.1v.1Zm-6.75 0v-.1h-.1v.1h.1Zm0 6.75v.1h.1v-.1h-.1Zm-6.75 0v-.1h-.1v.1h.1Zm0 6.75h-.1v.1h.1v-.1Zm1.688 0v.1h.1v-.1h-.1Zm6.187-11.25v-.1h-.1v.1h.1Zm1.125 0h.1v-.1h-.1v.1Zm-1.125 1.125h-.1v.1h.1v-.1Zm1.125 0v.1h.1v-.1h-.1Zm2.25-1.125v-.1h-.1v.1h.1Zm1.125 0h.1v-.1h-.1v.1Zm-1.125 1.125h-.1v.1h.1v-.1Zm1.125 0v.1h.1v-.1h-.1Zm-4.5 2.25v-.1h-.1v.1h.1Zm1.125 0h.1v-.1h-.1v.1Zm-1.125 1.125h-.1v.1h.1v-.1Zm1.125 0v.1h.1v-.1h-.1Zm2.25-1.125v-.1h-.1v.1h.1Zm1.125 0h.1v-.1h-.1v.1Zm-1.125 1.125h-.1v.1h.1v-.1Zm1.125 0v.1h.1v-.1h-.1Zm-4.5 2.25v-.1h-.1v.1h.1Zm1.125 0h.1v-.1h-.1v.1Zm-1.125 1.125h-.1v.1h.1v-.1Zm1.125 0v.1h.1v-.1h-.1Zm2.25-1.125v-.1h-.1v.1h.1Zm1.125 0h.1v-.1h-.1v.1Zm-1.125 1.125h-.1v.1h.1v-.1Zm1.125 0v.1h.1v-.1h-.1Zm1.125-11.35h-6.75v.2h6.75v-.2Zm.866.359a1.226 1.226 0 0 0-.866-.36v.2c.272.001.533.11.725.301l.141-.141Zm.36.866a1.23 1.23 0 0 0-.36-.866l-.141.141c.192.193.3.453.3.725h.2Zm0 14.625V5.392h-.2v14.625h.2Zm-15.85.1h15.75v-.2H3.656v.2Zm-.1-7.975v7.875h.2v-7.875h-.2Zm.358-.866c-.23.23-.358.541-.359.866h.2c0-.272.109-.532.3-.725l-.14-.141Zm.866-.36a1.23 1.23 0 0 0-.866.36l.142.141c.192-.192.453-.3.724-.3v-.2Zm5.625 0H4.781v.2h5.625v-.2Zm-.1-5.524v5.625h.2V5.392h-.2Zm.36-.866c-.23.23-.36.541-.36.866h.2c0-.272.109-.532.3-.725l-.14-.141Zm.865-.36a1.23 1.23 0 0 0-.866.36l.142.141c.192-.192.453-.3.724-.3v-.2ZM7.694 18.893v-3.938h-.2v3.938h.2Zm2.15-.1h-2.25v.2h2.25v-.2Zm-.1-3.838v3.938h.2v-3.938h-.2Zm-2.15.1h2.25v-.2h-2.25v.2Zm10.687 3.738H10.97v.2h7.312v-.2Zm-.1-13.4v13.5h.2v-13.5h-.2Zm-6.65.1h6.75v-.2h-6.75v.2Zm.1 6.65v-6.75h-.2v6.75h.2Zm-6.85.1h6.75v-.2h-6.75v.2Zm.1 6.65v-6.75h-.2v6.75h.2Zm1.588-.1H4.78v.2h1.69v-.2Zm-.1-4.4v4.5h.2v-4.5h-.2Zm.194-.469a.662.662 0 0 0-.194.469h.2a.46.46 0 0 1 .135-.327l-.141-.142Zm.468-.194a.662.662 0 0 0-.468.194l.141.142a.463.463 0 0 1 .327-.136v-.2Zm3.375 0H7.031v.2h3.375v-.2Zm.469.194a.662.662 0 0 0-.469-.194v.2c.123 0 .24.05.327.136l.142-.142Zm.194.469a.662.662 0 0 0-.194-.469l-.142.142a.463.463 0 0 1 .136.327h.2Zm0 4.5v-4.5h-.2v4.5h.2Zm1.587-11.15h1.125v-.2h-1.125v.2Zm.1 1.025V7.642h-.2v1.125h.2Zm1.025-.1h-1.125v.2h1.125v-.2Zm-.1-1.025v1.125h.2V7.642h-.2Zm2.35.1h1.125v-.2h-1.125v.2Zm.1 1.025V7.642h-.2v1.125h.2Zm1.025-.1h-1.125v.2h1.125v-.2Zm-.1-1.025v1.125h.2V7.642h-.2Zm-4.4 3.475h1.125v-.2h-1.125v.2Zm.1 1.025v-1.125h-.2v1.125h.2Zm1.025-.1h-1.125v.2h1.125v-.2Zm-.1-1.025v1.125h.2v-1.125h-.2Zm2.35.1h1.125v-.2h-1.125v.2Zm.1 1.025v-1.125h-.2v1.125h.2Zm1.025-.1h-1.125v.2h1.125v-.2Zm-.1-1.025v1.125h.2v-1.125h-.2Zm-4.4 3.475h1.125v-.2h-1.125v.2Zm.1 1.025v-1.125h-.2v1.125h.2Zm1.025-.1h-1.125v.2h1.125v-.2Zm-.1-1.025v1.125h.2v-1.125h-.2Zm2.35.1h1.125v-.2h-1.125v.2Zm.1 1.025v-1.125h-.2v1.125h.2Zm1.025-.1h-1.125v.2h1.125v-.2Zm-.1-1.025v1.125h.2v-1.125h-.2Z" mask="url(#a)"/>
</svg>
