<svg xmlns="http://www.w3.org/2000/svg" fill="currentColor" viewBox="0 0 25 25">
  <path fill-rule="evenodd" d="M12.035 5.508a2.1 2.1 0 1 0 0 4.2 2.1 2.1 0 0 0 0-4.2Zm-3.6 2.1a3.6 3.6 0 1 1 7.2 0 3.6 3.6 0 0 1-7.2 0Zm3.65 6.127a4.002 4.002 0 0 0-4 4v1.15h8v-1.15a4.001 4.001 0 0 0-4-4Zm5.5 5.15h3.25v-1.15a2.1 2.1 0 0 0-3.481-1.582c.15.502.231 1.033.231 1.582v1.15Zm-.875-4.127a5.495 5.495 0 0 0-4.625-2.523 5.495 5.495 0 0 0-4.625 2.523 3.6 3.6 0 0 0-5.625 2.977v1.9c0 .414.336.75.75.75h19a.75.75 0 0 0 .75-.75v-1.9a3.6 3.6 0 0 0-5.625-2.977Zm-9.894 1.395a2.1 2.1 0 0 0-3.481 1.582v1.15h3.25v-1.15c0-.549.08-1.08.231-1.582Z" clip-rule="evenodd"/>
  <path fill-rule="evenodd" d="M3.059 11.136a2.243 2.243 0 1 1 4.485 0 2.243 2.243 0 0 1-4.485 0Zm2.242-.743a.743.743 0 1 0 0 1.485.743.743 0 0 0 0-1.485Zm11.325.743a2.243 2.243 0 1 1 4.485 0 2.243 2.243 0 0 1-4.485 0Zm2.243-.743a.743.743 0 1 0 0 1.485.743.743 0 0 0 0-1.485Z" clip-rule="evenodd"/>
</svg>
