<svg xmlns="http://www.w3.org/2000/svg" fill="currentColor" viewBox="0 0 24 24">
  <path fill-rule="evenodd" d="M10.89 5.125a1.92 1.92 0 0 1 1.898-1.594c.968 0 1.723.703 1.867 1.596.165-.037.319-.052.449-.052a1.89 1.89 0 0 1 1.892 1.908v.454c.155-.033.3-.046.423-.046a1.89 1.89 0 0 1 1.892 1.908v5.789a.75.75 0 0 1-1.5 0v-5.79a.39.39 0 0 0-.392-.407.574.574 0 0 0-.301.092.246.246 0 0 0-.08.089.488.488 0 0 0-.042.227v1.93a.75.75 0 0 1-1.5 0V6.982a.39.39 0 0 0-.393-.408.582.582 0 0 0-.298.093.253.253 0 0 0-.082.09.477.477 0 0 0-.043.225v4.245a.75.75 0 0 1-1.5 0V5.44a.39.39 0 0 0-.392-.408.416.416 0 0 0-.423.408v5.79a.75.75 0 0 1-1.5 0V6.982a.495.495 0 0 0-.043-.23.245.245 0 0 0-.079-.088.546.546 0 0 0-.286-.09.415.415 0 0 0-.408.423v6.546a.75.75 0 0 1-1.5 0V6.998c0-1.037.829-1.923 1.908-1.923.126 0 .275.014.434.05Z" clip-rule="evenodd"/>
  <path fill-rule="evenodd" d="M6.85 12a.53.53 0 0 0-.318.004h-.001c-.318.103-.422.439-.273.679l.004.007 1.213 2.012c1.163 1.938 1.931 2.969 2.714 3.544.73.537 1.541.723 2.97.723 1.372 0 2.544-.356 3.355-.997.79-.623 1.297-1.559 1.297-2.885a.75.75 0 0 1 1.5 0c0 1.762-.7 3.142-1.867 4.063-1.145.903-2.674 1.319-4.286 1.319-1.556 0-2.75-.2-3.857-1.014-1.056-.776-1.959-2.06-3.112-3.98 0-.001 0 0 0 0l-1.21-2.008c-.675-1.099-.117-2.498 1.089-2.89a2.029 2.029 0 0 1 2.213.662l1.586 1.84a.75.75 0 1 1-1.136.98l-1.596-1.853A.53.53 0 0 0 6.85 12Z" clip-rule="evenodd"/>
</svg>
