<svg xmlns="http://www.w3.org/2000/svg" fill="currentColor" viewBox="0 0 24 24">
  <path fill-rule="evenodd" d="M5.25 10.242C5.25 6.114 8.456 2.75 12.5 2.75s7.25 3.364 7.25 7.492c0 .971-.357 2.025-.848 3.034-.498 1.021-1.168 2.064-1.867 3.032-1.4 1.937-2.965 3.637-3.647 4.353-.486.51-1.29.51-1.776 0-.682-.716-2.247-2.416-3.647-4.353-.7-.968-1.369-2.011-1.867-3.032-.49-1.009-.848-2.063-.848-3.034ZM12.5 4.25c-3.164 0-5.75 2.64-5.75 5.992 0 .636.244 1.447.697 2.377.446.916 1.063 1.882 1.734 2.811 1.222 1.69 2.585 3.204 3.319 3.987.734-.783 2.097-2.296 3.319-3.987.671-.929 1.288-1.895 1.734-2.811.453-.93.697-1.74.697-2.377 0-3.351-2.586-5.992-5.75-5.992Zm0 4c-.986 0-1.75.765-1.75 1.75 0 .986.764 1.75 1.75 1.75s1.75-.764 1.75-1.75-.764-1.75-1.75-1.75ZM9.25 10A3.226 3.226 0 0 1 12.5 6.75 3.226 3.226 0 0 1 15.75 10 3.226 3.226 0 0 1 12.5 13.25 3.226 3.226 0 0 1 9.25 10Z" clip-rule="evenodd"/>
</svg>