<svg xmlns="http://www.w3.org/2000/svg" fill="currentColor" viewBox="0 0 24 24">
  <path fill-rule="evenodd" d="M9.402 9.61a3.38 3.38 0 1 1 4.801 4.761 3.38 3.38 0 0 1-4.8-4.76Zm1.06 3.72a1.88 1.88 0 1 0 2.66-2.66 1.88 1.88 0 0 0-2.66 2.66Z" clip-rule="evenodd"/>
  <path fill-rule="evenodd" d="M4.472 5.55h14.59a1.5 1.5 0 0 1 1.46 1.5v9.9a1.5 1.5 0 0 1-1.5 1.5H4.472a1.5 1.5 0 0 1-1.5-1.5v-9.9a1.5 1.5 0 0 1 1.5-1.5Zm0 11.4h2.06a2.65 2.65 0 0 0-2.06-1.98v1.98Zm14.59 0h-1.92a2.67 2.67 0 0 1 1.912-1.998l.008 1.998Zm-11.02 0h7.58a4.14 4.14 0 0 1 3.426-3.478l-.01-2.846a4.15 4.15 0 0 1-3.426-3.576h-7.64a4.14 4.14 0 0 1-3.5 3.59v2.82a4.13 4.13 0 0 1 3.57 3.49ZM19.03 9.092l-.008-2.042h-1.91a2.67 2.67 0 0 0 1.918 2.042ZM4.472 9.13a2.67 2.67 0 0 0 2-2.08h-2v2.08Z" clip-rule="evenodd"/>
</svg>
