<svg xmlns="http://www.w3.org/2000/svg" fill="currentColor" viewBox="0 0 24 24">
  <path fill-rule="evenodd" d="M10.738 3.657a.79.79 0 0 1 1.078-.29l6.965 4.022a.79.79 0 0 1-.79 1.367l-.655-.379-1.81 3.135c.39.324.774.755.981 1.37.042.125.077.253.103.383.147.73-.029 1.367-.247 1.883-.194.46-.493.978-.801 1.51l-.04.068-.033.059a1.579 1.579 0 0 1-2.157.578l-3.03-1.75-2.214 3.834a.79.79 0 0 1-1.368-.79l2.214-3.834-3.03-1.75a1.579 1.579 0 0 1-.579-2.157l.034-.058.039-.068c.307-.532.606-1.05.908-1.45.337-.446.801-.917 1.507-1.154.125-.042.253-.077.383-.103.635-.128 1.2-.011 1.677.165l1.81-3.134-.656-.379a.79.79 0 0 1-.29-1.078Zm2.312 2.246 2.918 1.685-1.763 3.054-.302-.175-.068-.04-2.178-1.257-.068-.039-.302-.174 1.763-3.054Zm2.012 7.674c.063.312-.005.626-.186 1.03-.158.354-.402.778-.72 1.33l-.034.058-7.43-4.29.034-.057c.319-.553.563-.976.79-1.29.26-.358.499-.574.8-.676.063-.02.127-.038.192-.05.585-.119 1.177.223 2.36.906l2.178 1.257c1.183.683 1.774 1.025 1.965 1.59.02.063.038.127.051.192Z" clip-rule="evenodd"/>
</svg>
