<?xml version="1.0" standalone="no"?>
<!DOCTYPE svg PUBLIC "-//W3C//DTD SVG 20010904//EN"
 "http://www.w3.org/TR/2001/REC-SVG-20010904/DTD/svg10.dtd">
<svg version="1.0" xmlns="http://www.w3.org/2000/svg"
 width="300.000000pt" height="300.000000pt" viewBox="0 0 300.000000 300.000000"
 preserveAspectRatio="xMidYMid meet">
<metadata>
Created by potrace 1.11, written by Peter Selinger 2001-2013
</metadata>
<g transform="translate(0.000000,300.000000) scale(0.100000,-0.100000)"
fill="#000000" stroke="none">
<path d="M1355 2974 c-33 -9 -77 -15 -97 -15 -25 0 -41 -5 -50 -18 -7 -10 -34
-27 -59 -38 -25 -11 -65 -41 -89 -66 -23 -26 -46 -45 -50 -42 -9 5 -36 -43
-44 -80 -4 -16 -9 -39 -12 -50 -5 -20 -5 -20 10 -1 20 25 20 8 1 -18 -19 -25
-19 -55 0 -62 11 -5 12 -10 4 -26 -6 -11 -8 -30 -5 -43 4 -15 -2 -38 -15 -62
l-22 -38 33 38 c18 21 34 36 37 33 8 -8 -62 -106 -74 -101 -6 2 -17 -3 -23
-11 -7 -8 -16 -14 -21 -14 -17 0 -69 -53 -69 -70 0 -9 -10 -37 -23 -61 -13
-24 -54 -111 -91 -194 -112 -247 -124 -267 -134 -237 -2 7 -14 12 -28 12 -16
0 -35 -15 -63 -50 -22 -28 -43 -59 -46 -71 -4 -12 -13 -18 -20 -15 -8 3 -16 0
-19 -7 -4 -7 -4 4 -1 23 3 19 10 37 15 38 6 2 10 10 10 17 0 20 31 47 46 41 9
-4 14 2 14 15 0 11 -5 17 -10 14 -6 -4 -2 9 8 27 14 25 17 40 10 57 -5 14 -5
27 0 30 18 12 67 131 53 131 -15 0 -2 73 21 114 7 13 6 21 -2 26 -8 5 -7 10 3
19 13 10 27 54 31 96 3 21 19 61 36 85 23 33 31 90 13 97 -7 3 -10 9 -7 14 28
46 -135 -68 -207 -144 -9 -10 -15 -26 -12 -36 6 -24 -23 -47 -40 -33 -16 13
-48 -12 -101 -76 -41 -50 -46 -68 -15 -52 11 7 23 9 27 6 3 -4 7 -46 8 -94 1
-62 -2 -94 -13 -111 -9 -14 -11 -27 -6 -32 25 -25 -17 -102 -47 -84 -5 3 -26
-15 -47 -40 -44 -53 -143 -212 -143 -231 0 -7 13 -11 32 -10 31 1 32 0 30 -35
-3 -32 51 -199 63 -199 3 0 2 15 0 33 -3 17 -3 26 1 20 9 -20 24 -15 24 8 0
11 7 27 15 35 12 12 15 12 15 2 0 -7 8 3 18 22 l17 35 9 -28 c6 -15 15 -27 22
-27 7 0 18 -2 26 -5 20 -8 46 56 60 145 9 59 13 70 19 50 7 -24 7 -24 8 -2 2
38 22 24 22 -15 1 -74 5 -122 11 -128 3 -3 4 -23 1 -43 -3 -23 3 -60 15 -97
11 -33 23 -96 27 -140 4 -44 11 -84 15 -90 11 -15 22 -75 21 -119 -1 -42 31
-106 69 -141 12 -11 26 -29 30 -41 5 -11 37 -35 72 -54 34 -18 70 -39 79 -47
10 -8 40 -20 67 -28 53 -13 88 -33 91 -50 6 -46 15 -82 24 -92 7 -9 5 -13 -6
-13 -8 0 -17 -9 -20 -20 -3 -13 -11 -18 -20 -14 -18 7 -43 -31 -27 -41 5 -3
10 1 10 9 0 9 5 16 10 16 13 0 13 -27 1 -35 -14 -8 18 -59 51 -81 15 -11 28
-24 28 -30 0 -6 8 -20 18 -31 9 -11 28 -34 41 -51 13 -17 26 -31 30 -30 3 1
17 -3 31 -9 14 -6 30 -12 35 -13 6 -1 22 -11 37 -21 14 -10 29 -19 32 -19 4 0
20 -10 36 -22 53 -39 249 -57 287 -27 6 6 47 10 90 11 84 0 103 5 82 20 -9 5
-4 6 15 2 20 -5 33 -2 40 7 15 20 59 21 52 2 -8 -21 2 -33 20 -26 13 5 13 7 2
14 -9 6 -7 9 10 9 12 0 21 5 20 12 -2 7 3 12 10 10 6 -1 12 2 12 8 0 5 -10 9
-21 7 -12 -1 -24 4 -26 11 -3 6 2 12 11 12 9 0 16 5 16 10 0 6 -5 10 -10 10
-7 0 -6 5 1 13 7 7 24 12 38 12 19 0 27 6 29 22 2 14 10 23 20 23 14 0 14 2 3
9 -15 10 -7 13 58 26 32 7 33 8 16 21 -17 13 -17 14 6 23 18 7 20 10 6 10 -10
1 -15 6 -12 11 3 6 1 10 -4 10 -6 0 -1 10 10 21 23 23 60 31 71 15 4 -6 19 -5
40 2 l33 11 -35 -4 -35 -5 35 14 c19 7 34 19 32 26 -2 8 4 11 16 8 11 -3 26
-1 35 4 13 7 15 5 10 -8 -6 -15 -4 -15 20 1 14 9 30 14 35 11 6 -3 16 2 23 12
13 16 13 16 -5 2 -19 -15 -19 -14 -2 13 21 31 28 35 19 10 -5 -12 -2 -15 10
-10 16 6 16 4 0 -21 -17 -26 -17 -26 0 -13 16 12 17 12 11 -5 -3 -10 15 4 40
31 48 53 60 54 24 2 -15 -23 -6 -17 33 20 59 57 81 68 54 27 -9 -14 -14 -28
-11 -31 3 -3 8 1 12 10 3 9 22 28 42 43 19 15 32 21 27 14 -5 -8 15 5 43 29
38 32 55 42 63 34 12 -12 39 -7 39 7 0 7 -56 24 -71 22 -3 -1 -5 9 -3 21 14
90 18 108 26 114 6 3 14 -1 19 -8 5 -8 9 -9 9 -4 0 6 5 3 11 -5 8 -11 12 -12
16 -2 9 22 20 12 17 -15 -2 -16 -1 -20 2 -10 3 9 10 15 15 11 5 -3 6 -11 2
-17 -4 -8 -1 -7 9 1 12 9 18 10 23 2 4 -6 14 -9 22 -6 11 5 13 2 9 -10 -4 -11
-1 -14 11 -12 22 4 68 72 83 123 7 22 16 45 21 50 43 54 56 474 17 549 -7 13
-7 16 1 11 16 -9 2 47 -13 57 -7 5 -11 53 -12 130 0 92 -5 136 -18 173 -30 82
-135 295 -180 365 -23 36 -50 77 -59 92 -9 14 -25 29 -35 32 -21 7 -56 62 -47
75 16 27 -278 316 -371 364 -59 30 -168 51 -210 39 -37 -9 -38 -10 -9 -11 20
-1 26 -4 17 -10 -18 -11 -62 -2 -62 14 0 16 -38 50 -47 42 -3 -4 -1 -7 5 -7 7
0 12 -4 12 -9 0 -13 -39 -1 -75 22 -27 17 -28 18 -5 11 14 -4 32 -9 40 -12 10
-3 12 -2 5 5 -18 17 -127 61 -220 88 -115 33 -202 39 -280 19z m480 -174 c10
9 19 9 32 0 16 -10 16 -11 -5 -7 -13 3 -20 1 -16 -5 4 -5 17 -8 31 -5 13 2 21
2 18 -1 -3 -3 22 -17 56 -32 33 -14 59 -28 57 -32 -6 -11 36 -49 49 -44 7 3
12 0 10 -7 -1 -7 6 -11 17 -9 10 2 15 -1 12 -6 -8 -14 22 -50 47 -55 20 -4 20
-4 -3 -6 -15 0 -30 -5 -35 -10 -6 -5 -44 -6 -86 -2 -42 3 -87 4 -100 1 -13 -3
-47 -1 -76 6 -45 10 -51 10 -46 -3 5 -13 -5 -15 -65 -11 -39 2 -68 0 -66 -4 3
-4 0 -8 -5 -8 -6 0 -11 6 -11 13 -1 8 -5 7 -13 -3 -7 -9 -32 -22 -57 -29 -25
-7 -53 -15 -62 -17 -13 -4 -16 -1 -12 10 4 11 1 16 -10 16 -22 0 -20 17 3 23
14 3 18 1 14 -10 -5 -12 1 -14 26 -10 18 3 37 10 44 15 7 5 29 12 50 16 40 7
48 21 18 31 -22 7 -53 -4 -45 -16 3 -5 -1 -9 -8 -9 -7 0 -14 11 -14 25 -1 14
2 25 8 25 5 0 7 -4 4 -8 -3 -5 18 -4 46 1 38 8 71 7 122 -2 84 -16 237 -40
251 -41 5 0 5 3 0 9 -6 6 -62 17 -125 25 -63 8 -128 19 -145 24 -16 5 -35 7
-42 5 -6 -2 -22 2 -35 10 -24 16 -105 16 -117 1 -8 -12 -42 -33 -63 -40 -9 -3
-19 -13 -22 -21 -4 -11 -2 -13 9 -9 24 9 17 -14 -7 -24 -13 -5 -34 -18 -48
-30 l-25 -21 27 12 c21 9 31 8 49 -5 13 -9 18 -16 11 -16 -8 0 -20 -7 -28 -15
-9 -8 -20 -15 -26 -15 -6 0 -1 9 12 20 36 31 17 34 -29 3 -28 -18 -37 -29 -29
-34 7 -4 10 -10 8 -12 -3 -3 -25 -21 -49 -41 -40 -34 -49 -37 -100 -35 -31 1
-72 -2 -92 -6 -23 -4 -39 -3 -43 4 -4 6 -16 11 -27 11 -12 0 -17 4 -13 11 4 8
-1 9 -17 4 -20 -7 -21 -6 -9 6 21 20 88 69 94 69 3 0 16 11 30 24 14 13 52 37
83 54 32 18 76 47 98 67 22 19 44 35 49 35 5 0 19 11 31 24 13 14 26 22 29 19
3 -4 6 -2 6 4 0 6 8 9 19 6 10 -2 26 3 35 12 9 10 20 15 23 11 3 -3 12 2 19
12 9 11 16 13 21 6 11 -16 45 -14 39 3 -4 10 10 13 64 13 60 0 69 2 63 16 -5
14 0 16 30 12 22 -2 37 0 38 7 0 5 3 4 6 -3 4 -10 8 -10 18 -2z m-280 -20 c3
-5 1 -10 -4 -10 -6 0 -11 5 -11 10 0 6 2 10 4 10 3 0 8 -4 11 -10z m490 -80
c3 -5 2 -10 -4 -10 -5 0 -13 5 -16 10 -3 6 -2 10 4 10 5 0 13 -4 16 -10z
m-408 -56 c-3 -3 -12 -4 -19 -1 -8 3 -5 6 6 6 11 1 17 -2 13 -5z m-87 -39 c-8
-10 -7 -14 7 -17 14 -3 15 -5 3 -9 -8 -3 -26 0 -40 8 l-25 13 23 6 c12 4 22
11 22 16 0 5 5 6 10 3 8 -5 8 -11 0 -20z m758 -43 c-2 -10 6 -25 17 -34 11
-10 15 -17 8 -18 -6 0 -15 5 -18 10 -3 6 -11 10 -17 10 -6 0 -5 -7 3 -17 13
-17 13 -17 -11 -2 -31 20 -38 49 -15 66 21 15 37 8 33 -15z m228 -154 c11 -22
12 -28 2 -28 -32 1 -89 74 -65 83 6 3 2 6 -10 6 -13 1 -23 5 -23 11 0 5 -7 7
-15 4 -14 -6 -20 6 -16 30 1 4 -3 14 -9 20 -5 7 -6 16 -2 20 8 9 115 -105 138
-146z m-1464 99 c-32 -33 -43 -57 -19 -41 7 5 4 1 -8 -9 -11 -10 -32 -29 -48
-42 -15 -14 -32 -25 -38 -25 -13 0 21 49 57 81 14 13 35 34 47 47 11 12 25 22
31 22 5 0 -4 -15 -22 -33z m-82 19 c0 -3 -4 -8 -10 -11 -5 -3 -10 -1 -10 4 0
6 5 11 10 11 6 0 10 -2 10 -4z m1378 -18 c-2 -7 4 -12 13 -10 18 3 34 -24 19
-33 -10 -6 -60 23 -60 34 0 10 11 21 22 21 4 0 7 -6 6 -12z m-134 -24 c33 -11
44 -19 35 -25 -10 -6 -9 -9 6 -14 47 -16 146 -59 150 -66 5 -7 -71 8 -87 17
-4 3 -8 3 -8 -1 0 -3 20 -14 44 -25 24 -10 46 -23 50 -28 3 -5 -11 -1 -31 9
-21 11 -43 19 -50 19 -8 0 -16 6 -19 14 -3 9 -12 12 -21 9 -11 -4 -14 -2 -9 5
8 14 -60 47 -119 58 -19 3 -35 11 -35 16 0 5 8 7 18 4 9 -3 35 -7 57 -11 41
-5 38 -3 -27 24 -38 16 -4 12 46 -5z m83 -30 c-3 -3 -12 -4 -19 -1 -8 3 -5 6
6 6 11 1 17 -2 13 -5z m173 -162 c0 -9 -44 25 -48 37 -2 7 7 3 22 -10 14 -12
26 -25 26 -27z m-774 -215 c169 -91 199 -116 234 -194 5 -13 17 -23 25 -23 30
0 138 -65 181 -107 26 -27 44 -56 48 -78 4 -19 21 -64 38 -100 29 -64 30 -70
26 -168 -3 -56 -13 -124 -22 -152 -27 -79 -98 -174 -172 -230 -36 -27 -93 -72
-126 -100 -137 -114 -251 -180 -331 -191 -25 -4 -48 -12 -51 -20 -8 -21 -70
-28 -104 -10 -16 8 -31 14 -33 12 -2 -1 -13 6 -23 17 -19 20 -19 20 0 12 10
-4 30 -9 44 -12 43 -7 -37 27 -115 49 -105 29 -194 88 -310 203 -34 34 -78
100 -72 108 1 1 -18 26 -41 55 -37 47 -42 60 -42 103 0 31 -4 48 -10 44 -6 -4
-10 6 -10 24 0 16 -5 33 -10 36 -6 4 -8 15 -5 25 3 10 -1 35 -10 56 -11 28
-12 39 -4 45 7 4 10 18 7 33 -14 71 49 244 109 299 13 12 29 31 35 42 9 16 8
18 -3 8 -16 -15 -33 -17 -24 -3 3 6 1 10 -4 10 -6 0 -11 -7 -11 -15 0 -8 -4
-15 -10 -15 -13 0 -13 6 2 33 6 12 14 35 17 50 3 15 11 28 16 28 6 0 18 15 27
33 15 28 24 35 63 40 25 4 78 6 118 5 40 -2 79 1 87 6 8 5 62 21 120 36 142
37 285 39 346 6z m477 -34 c21 -20 37 -44 37 -54 0 -9 7 -20 15 -23 14 -5 45
-61 51 -92 1 -6 10 -28 19 -48 13 -27 20 -34 26 -24 5 7 9 10 9 6 0 -3 3 -14
7 -24 4 -12 3 -15 -5 -10 -13 8 -15 -7 -6 -41 4 -13 12 -23 19 -23 8 0 16 -9
20 -19 10 -34 15 -150 6 -156 -6 -3 -5 -19 0 -38 6 -24 5 -45 -5 -73 l-15 -39
0 47 c-1 55 -39 208 -71 288 -12 30 -29 73 -37 95 -8 22 -19 46 -25 52 -7 9
-7 13 2 13 6 0 -2 19 -19 42 -17 23 -31 47 -31 52 0 6 -11 32 -24 59 -13 26
-21 47 -17 47 4 0 24 -16 44 -37z m-73 -43 c0 -5 -2 -10 -4 -10 -3 0 -8 5 -11
10 -3 6 -1 10 4 10 6 0 11 -4 11 -10z m-1216 -45 c-9 -14 -21 -25 -27 -25 -6
0 0 11 13 25 13 14 25 25 27 25 2 0 -4 -11 -13 -25z m-147 -422 c-3 -10 -5 -4
-5 12 0 17 2 24 5 18 2 -7 2 -21 0 -30z m30 -25 c-3 -8 -6 -5 -6 6 -1 11 2 17
5 13 3 -3 4 -12 1 -19z m14 -186 c6 -29 14 -50 19 -47 7 4 23 -35 17 -41 -1
-2 -13 12 -25 30 -25 37 -52 150 -51 211 1 34 3 30 15 -30 8 -38 19 -94 25
-123z m-4 136 c-3 -8 -6 -5 -6 6 -1 11 2 17 5 13 3 -3 4 -12 1 -19z m-50 -20
c-3 -8 -6 -5 -6 6 -1 11 2 17 5 13 3 -3 4 -12 1 -19z m10 -60 c-3 -7 -5 -2 -5
12 0 14 2 19 5 13 2 -7 2 -19 0 -25z m-7 -78 c0 8 11 -3 25 -25 13 -22 29 -48
35 -58 11 -18 10 -18 -14 -2 -25 17 -66 74 -66 91 0 5 5 2 10 -6 9 -13 10 -13
10 0z m-204 -237 c19 -26 17 -35 -6 -23 -11 6 -20 17 -20 25 0 20 10 19 26 -2z
m1984 -14 c0 -14 -5 -19 -14 -16 -7 3 -19 0 -25 -6 -18 -18 -13 4 6 25 21 24
33 23 33 -3z m0 -97 c0 -75 -10 -133 -22 -126 -5 3 -4 -3 4 -15 11 -18 10 -24
-10 -43 -19 -20 -24 -21 -32 -8 -9 14 -14 7 -11 -13 1 -5 -3 -5 -9 -2 -6 4 -9
13 -6 21 3 9 0 11 -11 7 -14 -5 -14 -3 1 19 9 14 14 33 10 42 -4 10 4 32 20
56 14 22 26 51 26 65 0 15 4 24 10 20 6 -4 10 5 10 20 0 15 4 24 10 20 6 -3
10 -32 10 -63z m-1618 30 c8 -8 9 -12 1 -12 -18 0 -43 12 -43 20 0 12 28 6 42
-8z m1511 -63 c-28 -49 -278 -327 -295 -328 -12 -1 -73 -45 -77 -56 -2 -5 -29
-19 -60 -30 -111 -40 -376 -70 -311 -36 8 5 33 12 55 16 64 11 262 73 308 96
103 52 263 194 344 307 48 66 66 82 36 31z m188 -102 c-7 -17 -15 -25 -25 -21
-16 6 -11 30 11 52 7 7 14 21 14 30 1 9 4 5 6 -9 2 -14 -1 -37 -6 -52z m-183
-7 c-7 -10 -14 -17 -17 -15 -4 4 18 35 25 35 2 0 -1 -9 -8 -20z m116 5 c-4 -8
-11 -12 -16 -9 -6 4 -5 10 3 15 19 12 19 11 13 -6z m-41 -105 c-10 -11 -21
-20 -25 -20 -5 0 -3 9 4 20 7 11 18 20 25 20 9 0 7 -6 -4 -20z m-1343 -96 c0
-9 -37 15 -51 33 -10 12 -5 11 19 -6 17 -12 32 -24 32 -27z m1144 31 c-4 -8
-11 -15 -16 -15 -6 0 -5 6 2 15 7 8 14 15 16 15 2 0 1 -7 -2 -15z m39 -30 c-3
-9 -8 -14 -10 -11 -3 3 -2 9 2 15 9 16 15 13 8 -4z m-1128 -55 c50 -11 115
-28 145 -36 31 -9 69 -16 85 -15 74 1 91 0 108 -5 9 -3 17 -11 17 -18 0 -10
-29 -15 -102 -19 -83 -4 -110 -2 -138 11 -23 11 -55 15 -96 14 -59 -3 -62 -2
-105 37 -24 23 -47 41 -52 41 -4 0 -5 5 -1 11 3 6 16 8 28 5 11 -3 62 -15 111
-26z m1065 6 c0 -3 -4 -8 -10 -11 -5 -3 -10 -1 -10 4 0 6 5 11 10 11 6 0 10
-2 10 -4z m-630 -430 c-7 -7 -14 -6 -21 1 -9 9 -7 12 9 10 14 -1 18 -5 12 -11z"/>
<path d="M1337 2523 c-4 -3 -7 -11 -7 -17 0 -6 5 -5 12 2 6 6 9 14 7 17 -3 3
-9 2 -12 -2z"/>
<path d="M590 515 c0 -8 -5 -15 -11 -15 -6 0 -3 -7 6 -16 9 -9 23 -28 32 -41
13 -19 21 -23 44 -18 36 8 39 -12 4 -21 -14 -3 -22 -10 -19 -15 3 -6 15 -7 26
-3 14 4 18 2 14 -5 -4 -6 -14 -11 -21 -11 -12 0 -11 -7 5 -34 69 -123 169
-226 251 -257 96 -37 150 -51 167 -44 13 5 4 12 -34 25 -27 10 -65 25 -84 35
-56 29 -145 121 -202 208 -29 45 -56 84 -60 85 -18 8 -5 22 36 40 24 11 47 25
51 32 6 9 3 9 -14 0 -31 -16 -61 -21 -61 -9 0 5 -10 9 -22 9 -17 0 -19 3 -9 9
9 6 10 11 2 15 -6 4 -11 4 -11 -1 0 -4 -5 -1 -11 7 -9 13 -10 12 -5 -2 3 -10
1 -18 -4 -18 -6 0 -10 4 -10 8 0 5 -13 18 -30 30 -24 18 -30 20 -30 7z m30
-35 c0 -5 -2 -10 -4 -10 -3 0 -8 5 -11 10 -3 6 -1 10 4 10 6 0 11 -4 11 -10z"/>
<path d="M2028 423 c7 -3 16 -2 19 1 4 3 -2 6 -13 5 -11 0 -14 -3 -6 -6z"/>
</g>
</svg>
