<svg viewBox="0 0 37 37" fill="none" xmlns="http://www.w3.org/2000/svg">
<path d="M29.3633 21.2869C29.4199 21.7478 29.4765 22.2086 29.533 22.6695C29.5974 23.1938 29.3661 23.5611 28.9227 23.8218C28.4313 24.1123 27.8991 24.2956 27.3563 24.4524C22.3468 25.8871 17.2939 27.1631 12.3099 28.6849C12.1198 28.7432 11.921 28.775 11.7272 28.8172C10.7003 29.0391 10.2641 28.8477 9.78087 27.9291C9.06658 26.5692 8.59615 25.1242 8.20769 23.6414C7.64356 21.4933 7.18316 19.3195 6.72821 17.1451C6.59332 16.4968 6.52472 15.833 6.46382 15.1719C6.36592 14.1195 6.59362 13.7526 7.58302 13.3309C9.23938 12.6229 11.0072 12.2678 12.737 11.8123C16.5231 10.8151 20.3547 10.0076 24.1831 9.1895C26.0093 8.79951 27.2526 9.68004 27.533 11.5131C27.9582 14.3008 28.4642 17.0712 29.1307 19.8127C29.2469 20.2938 29.2591 20.7988 29.3197 21.2923C29.3342 21.2905 29.3469 21.2889 29.3615 21.2872L29.3633 21.2869Z" fill="#60AE4C"/>
<path d="M7.83104 17.4149C9.46874 17.2139 10.492 16.5215 10.2178 14.2883" stroke="#A6DF98" stroke-width="0.9" stroke-linecap="round" stroke-linejoin="round"/>
<path d="M28.2449 20.646C26.6072 20.847 25.5839 21.5394 25.8581 23.7726" stroke="#A6DF98" stroke-width="0.9" stroke-linecap="round" stroke-linejoin="round"/>
<path d="M13.488 26.825C12.8655 25.2592 11.9409 24.4246 9.90266 25.2615" stroke="#A6DF98" stroke-width="0.9" stroke-linecap="round" stroke-linejoin="round"/>
<path d="M22.588 11.2359C23.2105 12.8017 24.135 13.6364 26.1733 12.7994" stroke="#A6DF98" stroke-width="0.9" stroke-linecap="round" stroke-linejoin="round"/>
<ellipse cx="18.0684" cy="19.5582" rx="4.4" ry="5.0625" transform="rotate(-7 18.0684 19.5582)" fill="#A6DF98"/>
<path d="M16.1566 17.526C16.5654 16.3424 18.749 16.0743 19.4543 17.3054" stroke="#60AE4C" stroke-width="0.9" stroke-linecap="round" stroke-linejoin="round"/>
</svg>
