<svg viewBox="0 0 37 37" fill="none" xmlns="http://www.w3.org/2000/svg">
<path d="M28.9999 22.6548C28.9999 23.1191 28.9999 23.5834 28.9999 24.0477C28.9999 24.576 28.7256 24.9123 28.2537 25.117C27.7306 25.3455 27.18 25.4625 26.6222 25.5521C21.4752 26.3655 16.3044 27.0163 11.172 27.9193C10.9763 27.9541 10.7751 27.9614 10.5776 27.9796C9.53136 28.0747 9.12165 27.8316 8.75401 26.8609C8.21078 25.4241 7.91996 23.9325 7.7151 22.4135C7.41696 20.2126 7.22491 17.9989 7.03835 15.7853C6.98348 15.1254 6.99628 14.4582 7.0164 13.7946C7.04749 12.738 7.3182 12.4017 8.35162 12.1037C10.0819 11.6029 11.8799 11.4658 13.6522 11.2245C17.5317 10.6962 21.4331 10.3617 25.3327 10.0162C27.1928 9.85169 28.3195 10.8772 28.3744 12.7307C28.4567 15.5495 28.6213 18.3609 28.9487 21.1632C29.0054 21.6549 28.956 22.1576 28.956 22.6548C28.9707 22.6548 28.9835 22.6548 28.9981 22.6548H28.9999Z" fill="#68BD53"/>
<path d="M8.09998 16.1875C9.74998 16.1875 10.85 15.625 10.85 13.375" stroke="#DBFDD3" stroke-width="0.9" stroke-linecap="round" stroke-linejoin="round"/>
<path d="M27.968 21.8823C26.318 21.8823 25.218 22.4448 25.218 24.6948" stroke="#DBFDD3" stroke-width="0.9" stroke-linecap="round" stroke-linejoin="round"/>
<path d="M12.568 26.2169C12.141 24.5869 11.325 23.6458 9.19999 24.2282" stroke="#DBFDD3" stroke-width="0.9" stroke-linecap="round" stroke-linejoin="round"/>
<path d="M23.5 11.8529C23.927 13.4829 24.743 14.424 26.868 13.8417" stroke="#DBFDD3" stroke-width="0.9" stroke-linecap="round" stroke-linejoin="round"/>
<ellipse cx="18" cy="19.5625" rx="4.4" ry="5.0625" fill="#DBFDD3"/>
<path d="M16.35 17.3124C16.9 16.1874 19.1 16.1874 19.65 17.4953" stroke="#68BD53" stroke-width="0.9" stroke-linecap="round" stroke-linejoin="round"/>
</svg>
