<svg xmlns="http://www.w3.org/2000/svg" fill="currentColor" viewBox="0 0 24 24">
  <path fill-rule="evenodd" d="M11.179 3.09c.385 0 .698.312.698.697v1.766h5.461a.7.7 0 0 1 .494.205l2.463 2.463a.698.698 0 0 1 0 .988l-2.463 2.463a.698.698 0 0 1-.494.205h-5.461v7.638h1.355a.698.698 0 1 1 0 1.396H9.126a.698.698 0 1 1 0-1.396h1.355v-7.638H4.198a.698.698 0 0 1-.698-.698V6.25c0-.385.313-.698.698-.698h6.283V3.787c0-.385.312-.698.698-.698ZM4.896 6.95H17.05l1.766 1.765-1.766 1.766H4.896V6.949Z" clip-rule="evenodd"/>
</svg>
