<svg viewBox="0 0 37 37" fill="none" xmlns="http://www.w3.org/2000/svg">
<path d="M14.6687 15.5204C14.6687 15.2636 14.4167 14.9715 14.2282 14.7407C13.498 13.8479 12.8007 12.9245 12.0257 12.0718C11.2649 11.2379 11.6818 10.6042 12.6877 10.5854C14.0139 10.5595 15.3401 10.5194 16.6639 10.5666C17.6533 10.6019 18.3623 10.331 18.8735 9.40996C19.4129 8.44181 20.0772 7.53962 20.7438 6.65156C21.4316 5.73288 21.8886 5.78235 22.4139 6.82116C22.9557 7.88825 23.4786 8.96711 23.9356 10.0719C24.2112 10.7362 24.6564 11.0801 25.3184 11.2685C26.4702 11.596 27.6103 11.9587 28.7528 12.3168C29.0779 12.418 29.4147 12.517 29.7092 12.6819C30.2321 12.9716 30.3122 13.3838 29.9023 13.8385C29.622 14.1518 29.2569 14.392 28.9106 14.6417C28.0438 15.2683 27.1816 15.8996 26.2936 16.4932C25.6293 16.9384 25.3254 17.5038 25.356 18.3212C25.4079 19.7298 25.3867 21.1432 25.3867 22.5542C25.3867 22.9358 25.4291 23.3786 25.0004 23.5624C24.5811 23.7414 24.2795 23.421 23.9827 23.176C23.0947 22.4387 22.2231 21.6803 21.3209 20.9641C20.48 20.2952 20.1054 20.2104 20.1054 20.2104C19.9876 20.2104 19.0454 22.1372 18.3387 23.176C17.632 24.2149 16.9085 25.1571 15.9831 26.4527C15.2796 27.4377 14.0119 28.8993 13.4446 29.5434C13.3208 29.6839 13.0933 29.631 13.0453 29.45C12.712 28.1913 11.7431 24.5075 11.7431 24.2149C11.0364 24.2149 5.26521 26.0994 5.02963 25.8638C4.79406 25.6283 6.01661 23.7697 6.79631 22.5542C7.57601 21.3387 9.8586 19.0373 11.1542 18.0904C12.4497 17.1434 13.2119 16.606 13.9597 16.1517C14.452 15.8525 14.6687 15.7348 14.6687 15.5274V15.5204Z" fill="#F7C702"/>
<path fill-rule="evenodd" clip-rule="evenodd" d="M11.8707 23.7943C12.0609 23.751 12.2503 23.8702 12.2935 24.0605L13.4713 29.2428C13.5146 29.4331 13.3954 29.6224 13.2051 29.6657C13.0148 29.7089 12.8255 29.5897 12.7822 29.3994L11.6044 24.2171C11.5612 24.0269 11.6804 23.8375 11.8707 23.7943Z" fill="#D48D03"/>
<path fill-rule="evenodd" clip-rule="evenodd" d="M15.0701 16.0908C15.2637 16.1155 15.4006 16.2924 15.3759 16.486L14.7804 21.1553C14.7694 21.2417 14.8527 21.3097 14.9352 21.2817L19.8682 19.6045C20.1318 19.5148 20.423 19.5643 20.6422 19.7361L24.7992 22.9944C24.9528 23.1148 24.9797 23.3369 24.8594 23.4905C24.739 23.644 24.5169 23.671 24.3633 23.5506L20.2062 20.2923C20.1749 20.2678 20.1333 20.2607 20.0957 20.2735L15.1626 21.9508C14.5855 22.147 14.0023 21.6706 14.0794 21.0659L14.6749 16.3966C14.6996 16.203 14.8765 16.0661 15.0701 16.0908Z" fill="#D48D03"/>
</svg>
