<svg xmlns="http://www.w3.org/2000/svg" fill="currentColor" viewBox="0 0 24 24">
  <path fill-rule="evenodd" d="M17.25 3.487a.75.75 0 0 0-1.5 0v.75h-3v-.75a.75.75 0 0 0-1.5 0v.75h-3v-.75a.75.75 0 1 0-1.5 0v.75H6a3 3 0 0 0-3 3v10.5a3 3 0 0 0 3 3h12a3 3 0 0 0 3-3v-10.5a3 3 0 0 0-3-3h-.75v-.75Zm-10.5 3a.75.75 0 0 0 1.5 0v-.75h3v.75a.75.75 0 0 0 1.5 0v-.75h3v.75a.75.75 0 0 0 1.5 0v-.75H18a1.5 1.5 0 0 1 1.5 1.5v10.5a1.5 1.5 0 0 1-1.5 1.5H6a1.5 1.5 0 0 1-1.5-1.5v-10.5a1.5 1.5 0 0 1 1.5-1.5h.75v.75Z" clip-rule="evenodd"/>
  <path fill-rule="evenodd" d="M11.867 8a.75.75 0 0 1 .688.451l1.043 2.401 2.477.299a.75.75 0 0 1 .43 1.284l-1.86 1.795.504 2.613a.75.75 0 0 1-1.12.787l-2.162-1.284-2.161 1.284a.75.75 0 0 1-1.12-.787l.504-2.613-1.86-1.795a.75.75 0 0 1 .43-1.284l2.477-.299 1.043-2.4A.75.75 0 0 1 11.868 8Zm0 2.633-.525 1.211a.75.75 0 0 1-.599.446l-1.337.161 1.018.982a.75.75 0 0 1 .216.682l-.265 1.373 1.11-.66a.75.75 0 0 1 .766 0l1.109.66-.265-1.373a.75.75 0 0 1 .216-.682l1.018-.982-1.338-.16a.75.75 0 0 1-.598-.447l-.526-1.21Z" clip-rule="evenodd"/>
</svg>
