<svg viewBox="0 0 37 37" fill="none" xmlns="http://www.w3.org/2000/svg">
<path d="M14.3992 15.8932C14.3679 15.6383 14.0822 15.3791 13.867 15.1729C13.0334 14.3758 12.2288 13.5443 11.3557 12.7924C10.4989 12.0574 10.8355 11.3777 11.8315 11.2364C13.1447 11.0491 14.4561 10.8477 15.7758 10.7331C16.7621 10.6476 17.4328 10.2923 17.8279 9.31586C18.2454 8.28919 18.7947 7.31277 19.3482 6.35009C19.9189 5.35443 20.3785 5.34784 21.0265 6.31489C21.6943 7.30799 22.3448 8.31508 22.933 9.35593C23.2876 9.98166 23.7714 10.2688 24.4513 10.3751C25.6345 10.5597 26.8103 10.7809 27.9879 10.997C28.3229 11.0579 28.6693 11.1151 28.9817 11.2429C29.536 11.4667 29.6657 11.8661 29.3143 12.3673C29.0743 12.7124 28.7412 12.9954 28.4279 13.2854C27.6439 14.013 26.8651 14.7446 26.056 15.4421C25.4509 15.9649 25.2182 16.5631 25.3482 17.3706C25.5713 18.7625 25.7225 20.1679 25.8945 21.5683C25.941 21.9471 26.0371 22.3815 25.6339 22.6161C25.2396 22.8449 24.9013 22.5637 24.5768 22.3567C23.6055 21.7331 22.648 21.0865 21.6653 20.4857C20.749 19.9241 20.367 19.8857 20.367 19.8857C20.2501 19.9 19.5497 21.9273 18.9749 23.0445C18.4001 24.1617 17.7968 25.1851 17.0362 26.5838C16.4579 27.6472 15.3778 29.2524 14.8932 29.9609C14.7875 30.1154 14.5552 30.0906 14.4855 29.9168C14.0013 28.7081 12.5906 25.1698 12.555 24.8794C11.8536 24.9656 6.35506 27.5393 6.09254 27.3342C5.83001 27.1291 6.81694 25.1354 7.4427 23.8339C8.06846 22.5325 10.0536 19.9701 11.2241 18.8723C12.3946 17.7745 13.0855 17.1482 13.7724 16.6062C14.2246 16.2493 14.4254 16.106 14.4001 15.9002L14.3992 15.8932Z" fill="#DDB306"/>
<path fill-rule="evenodd" clip-rule="evenodd" d="M12.6303 24.4464C12.8139 24.3803 13.0163 24.4756 13.0824 24.6592L14.883 29.6593C14.9491 29.8429 14.8539 30.0454 14.6703 30.1115C14.4867 30.1776 14.2842 30.0823 14.2181 29.8987L12.4175 24.8986C12.3514 24.715 12.4466 24.5126 12.6303 24.4464Z" fill="#C38901"/>
<path fill-rule="evenodd" clip-rule="evenodd" d="M14.8672 16.4103C15.0624 16.4112 15.2198 16.5702 15.2189 16.7653L15.1969 21.4724C15.1965 21.5595 15.2875 21.6169 15.3659 21.579L20.0577 19.3131C20.3085 19.192 20.6035 19.2057 20.842 19.3495L25.3652 22.0768C25.5323 22.1776 25.5861 22.3947 25.4853 22.5619C25.3845 22.729 25.1674 22.7828 25.0003 22.682L20.4771 19.9546C20.443 19.9341 20.4009 19.9321 20.3651 19.9495L15.6732 22.2154C15.1242 22.4805 14.4874 22.0787 14.4902 21.4691L14.5122 16.762C14.5132 16.5669 14.6721 16.4094 14.8672 16.4103Z" fill="#C38901"/>
</svg>
