<svg viewBox="0 0 37 37" fill="none" xmlns="http://www.w3.org/2000/svg">
<g clip-path="url(#clip0_2194_3834)">
<g clip-path="url(#clip1_2194_3834)">
<path d="M27.9684 15.3126C28.1227 16.4669 27.5137 19.2352 27.0399 20.2718C26.4476 22.8351 26.3643 26.4219 25.9269 26.4756C25.4337 26.5361 22.8944 23.3242 22.6612 23.4035C20.7143 24.4362 18.1892 25.6394 15.9727 25.8243C13.7996 26.0038 11.9102 25.3041 10.4746 23.7794C8.70449 21.902 7.60522 19.7047 7.71377 17.0404C7.7899 15.1697 8.57443 13.6606 9.93727 12.3749C11.214 11.1727 12.7113 10.3333 14.3842 9.79902C15.6378 9.39746 16.904 8.99638 18.1961 8.73827C21.9084 7.99219 25.8827 9.90954 27.2244 13.023C27.5436 13.7632 27.877 14.4997 27.9705 15.3123L27.9684 15.3126Z" fill="#169CDA"/>
</g>
<circle cx="14.1444" cy="19.3582" r="1.65" transform="rotate(-7 14.1444 19.3582)" fill="white" stroke="#0157A2" stroke-width="0.7"/>
<circle cx="18.8634" cy="16.7638" r="1.65" transform="rotate(-7 18.8634 16.7638)" fill="white" stroke="#0157A2" stroke-width="0.7"/>
<circle cx="23.5823" cy="14.1693" r="1.65" transform="rotate(-7 23.5823 14.1693)" fill="white" stroke="#0157A2" stroke-width="0.7"/>
<path fill-rule="evenodd" clip-rule="evenodd" d="M9.15076 27.2528C9.0293 27.4173 8.80016 27.4747 8.63896 27.3809L8.85889 27.0831C8.63896 27.3809 8.63885 27.3809 8.63873 27.3808L8.63844 27.3806L8.63764 27.3802L8.63523 27.3788L8.62719 27.374C8.62043 27.3699 8.61089 27.3642 8.59873 27.3567C8.57441 27.3418 8.53961 27.32 8.49568 27.2914C8.40785 27.2342 8.28339 27.1498 8.13312 27.0384C7.83283 26.816 7.42805 26.485 7.00617 26.0488C6.16481 25.1788 5.24081 23.8745 4.96203 22.1608C4.93239 21.9786 5.07021 21.7893 5.26986 21.7378C5.46951 21.6864 5.65539 21.7924 5.68502 21.9745C5.9381 23.5302 6.78178 24.7336 7.57514 25.554C7.97062 25.9629 8.34995 26.2729 8.62944 26.48C8.76906 26.5834 8.8834 26.6609 8.9619 26.712C9.00114 26.7376 9.03139 26.7565 9.05132 26.7687C9.06129 26.7748 9.06868 26.7793 9.07331 26.7821L9.07819 26.7849L9.07881 26.7853L9.07897 26.7854C9.24003 26.8792 9.27219 27.0884 9.15076 27.2528Z" fill="#0157A2"/>
</g>
<defs>
<clipPath id="clip0_2194_3834">
<rect width="28" height="20" fill="white" transform="translate(1.88574 9.78076) rotate(-7)"/>
</clipPath>
<clipPath id="clip1_2194_3834">
<rect width="20.4286" height="18.5714" fill="white" transform="translate(6.74878 10.1193) rotate(-7)"/>
</clipPath>
</defs>
</svg>
