<svg viewBox="0 0 37 37" fill="none" xmlns="http://www.w3.org/2000/svg">
<g clip-path="url(#clip0_1327_1566)">
<g clip-path="url(#clip1_1327_1566)">
<path d="M28.2143 16.6695C28.2268 17.834 27.285 20.5075 26.6883 21.4786C25.7881 23.9506 25.2683 27.5005 24.8276 27.5005C24.3307 27.5005 22.2017 24.003 21.9606 24.0534C19.9023 24.8411 17.2495 25.7276 15.027 25.6409C12.8482 25.5543 11.0581 24.6296 9.81902 22.9412C8.29093 20.8621 7.46764 18.5472 7.90007 15.916C8.20361 14.0685 9.16621 12.6663 10.6756 11.5562C12.0893 10.5187 13.6777 9.86792 15.4033 9.54153C16.6965 9.29574 18.0021 9.05196 19.316 8.95325C23.0916 8.66514 26.8026 11.0526 27.7548 14.3063C27.9814 15.0799 28.2226 15.8515 28.2164 16.6695H28.2143Z" fill="#5DC2F1"/>
</g>
<circle cx="14" cy="19" r="1.65" fill="white" stroke="#0D73D9" stroke-width="0.7"/>
<circle cx="19" cy="17" r="1.65" fill="white" stroke="#0D73D9" stroke-width="0.7"/>
<circle cx="24" cy="15" r="1.65" fill="white" stroke="#0D73D9" stroke-width="0.7"/>
<path fill-rule="evenodd" clip-rule="evenodd" d="M8.08161 26.2272C7.94101 26.3757 7.70659 26.4047 7.55801 26.292L7.81259 26.0232C7.55801 26.292 7.55791 26.2919 7.5578 26.2918L7.55753 26.2916L7.55679 26.2911L7.55457 26.2894L7.54718 26.2837C7.54096 26.2788 7.53219 26.272 7.52103 26.2631C7.49871 26.2453 7.46683 26.2194 7.42671 26.1857C7.3465 26.1182 7.23326 26.0192 7.09768 25.8904C6.82675 25.633 6.4653 25.2552 6.09974 24.7708C5.37068 23.8047 4.61253 22.3975 4.54466 20.6627C4.53745 20.4782 4.69732 20.3071 4.90175 20.2803C5.10618 20.2536 5.27775 20.3815 5.28497 20.5659C5.34658 22.1408 6.03731 23.438 6.72478 24.349C7.06747 24.8031 7.40619 25.157 7.65836 25.3966C7.78433 25.5163 7.88838 25.6071 7.96007 25.6674C7.9959 25.6975 8.02362 25.72 8.04191 25.7346C8.05106 25.7419 8.05785 25.7472 8.06211 25.7505L8.0666 25.754L8.06717 25.7544L8.06732 25.7545C8.21575 25.8672 8.22217 26.0788 8.08161 26.2272Z" fill="#0D73D9"/>
</g>
<defs>
<clipPath id="clip0_1327_1566">
<rect width="26" height="20.4286" fill="white" transform="translate(5 8)"/>
</clipPath>
<clipPath id="clip1_1327_1566">
<rect width="20.4286" height="18.5714" fill="white" transform="translate(7.78577 8.92871)"/>
</clipPath>
</defs>
</svg>
